<svg width="56" height="15" viewBox="0 0 56 15" fill="none" xmlns="http://www.w3.org/2000/svg">
<path d="M7.644 2.108C7.644 1.716 7.77 1.422 8.022 1.226C8.274 1.02067 8.56333 0.918 8.89 0.918C9.04867 0.918 9.20267 0.945999 9.352 1.002C9.50133 1.04867 9.63667 1.12333 9.758 1.226C9.87933 1.32867 9.97267 1.45467 10.038 1.604C10.1127 1.744 10.15 1.912 10.15 2.108V6.056H10.892V2.108C10.892 1.716 11.018 1.422 11.27 1.226C11.522 1.02067 11.8113 0.918 12.138 0.918C12.2967 0.918 12.4507 0.945999 12.6 1.002C12.7493 1.04867 12.8847 1.12333 13.006 1.226C13.1273 1.32867 13.2207 1.45467 13.286 1.604C13.3607 1.744 13.398 1.912 13.398 2.108V14.064H10.892V8.352H10.15V14.064H7.644V2.108ZM2.842 13.434C2.422 13.434 2.07667 13.3967 1.806 13.322C1.53533 13.2567 1.32533 13.1447 1.176 12.986C1.02667 12.8273 0.924 12.6127 0.868 12.342C0.812 12.0713 0.784 11.7353 0.784 11.334V2.752C0.784 2.276 0.91 1.93067 1.162 1.716C1.42333 1.50133 1.75 1.394 2.142 1.394C2.534 1.394 2.85133 1.50133 3.094 1.716C3.33667 1.93067 3.458 2.276 3.458 2.752V10.732C3.458 10.8907 3.48133 10.9933 3.528 11.04C3.584 11.0773 3.69133 11.096 3.85 11.096H5.936C6.16 11.096 6.34667 11.1287 6.496 11.194C6.65467 11.2593 6.78067 11.348 6.874 11.46C6.96733 11.572 7.03267 11.698 7.07 11.838C7.10733 11.978 7.126 12.1227 7.126 12.272C7.126 12.4213 7.10267 12.566 7.056 12.706C7.01867 12.846 6.95333 12.9673 6.86 13.07C6.776 13.182 6.65467 13.2707 6.496 13.336C6.34667 13.4013 6.16 13.434 5.936 13.434H2.842ZM18.284 3.242C18.144 3.242 18.046 3.26533 17.99 3.312C17.934 3.34933 17.906 3.43333 17.906 3.564V3.97C17.906 4.11 17.934 4.20333 17.99 4.25C18.046 4.28733 18.144 4.306 18.284 4.306H25.942C26.3247 4.306 26.5953 4.418 26.754 4.642C26.922 4.866 27.006 5.10867 27.006 5.37C27.006 5.63133 26.922 5.86933 26.754 6.084C26.5953 6.28933 26.3247 6.392 25.942 6.392H22.414V7.232H26.46C26.656 7.232 26.824 7.26467 26.964 7.33C27.104 7.39533 27.216 7.484 27.3 7.596C27.3933 7.69867 27.4587 7.81533 27.496 7.946C27.5333 8.07667 27.552 8.20733 27.552 8.338C27.552 8.46867 27.5287 8.59933 27.482 8.73C27.4447 8.86067 27.384 8.97733 27.3 9.08C27.216 9.18267 27.104 9.26667 26.964 9.332C26.824 9.39733 26.656 9.43 26.46 9.43H15.54C15.344 9.43 15.176 9.39733 15.036 9.332C14.896 9.26667 14.784 9.18267 14.7 9.08C14.616 8.97733 14.5507 8.86067 14.504 8.73C14.4667 8.59933 14.448 8.46867 14.448 8.338C14.448 8.20733 14.4667 8.07667 14.504 7.946C14.5413 7.81533 14.602 7.69867 14.686 7.596C14.7793 7.484 14.896 7.39533 15.036 7.33C15.176 7.26467 15.344 7.232 15.54 7.232H19.586V6.392H17.01C16.6087 6.392 16.2773 6.364 16.016 6.308C15.764 6.252 15.5633 6.154 15.414 6.014C15.2647 5.86467 15.162 5.66867 15.106 5.426C15.05 5.174 15.022 4.85667 15.022 4.474V3.06C15.022 2.67733 15.05 2.36 15.106 2.108C15.162 1.856 15.2647 1.66 15.414 1.52C15.5633 1.37067 15.764 1.268 16.016 1.212C16.2773 1.14667 16.6087 1.114 17.01 1.114H25.9C26.096 1.114 26.2593 1.14667 26.39 1.212C26.53 1.268 26.642 1.34733 26.726 1.45C26.81 1.55267 26.8707 1.66933 26.908 1.8C26.9453 1.92133 26.964 2.04733 26.964 2.178C26.964 2.44867 26.88 2.696 26.712 2.92C26.5533 3.13467 26.2827 3.242 25.9 3.242H18.284ZM17.15 14.064C16.758 14.064 16.4313 14.0267 16.17 13.952C15.9087 13.8867 15.7033 13.7747 15.554 13.616C15.4047 13.4573 15.2973 13.252 15.232 13C15.176 12.7387 15.148 12.4167 15.148 12.034V11.18C15.148 10.704 15.2927 10.3587 15.582 10.144C15.8713 9.92933 16.212 9.822 16.604 9.822C16.996 9.822 17.3273 9.92933 17.598 10.144C17.878 10.3587 18.018 10.704 18.018 11.18V11.614C18.018 11.7727 18.0413 11.8613 18.088 11.88C18.1347 11.8893 18.2373 11.894 18.396 11.894H25.942C26.3713 11.894 26.6747 12.006 26.852 12.23C27.0293 12.4447 27.118 12.692 27.118 12.972C27.118 13.2613 27.0247 13.5133 26.838 13.728C26.6607 13.952 26.362 14.064 25.942 14.064H17.15ZM35.644 2.108C35.644 1.716 35.77 1.422 36.022 1.226C36.274 1.02067 36.5633 0.918 36.89 0.918C37.0487 0.918 37.2027 0.945999 37.352 1.002C37.5013 1.04867 37.6367 1.12333 37.758 1.226C37.8793 1.32867 37.9727 1.45467 38.038 1.604C38.1127 1.744 38.15 1.912 38.15 2.108V6.056H38.892V2.108C38.892 1.716 39.018 1.422 39.27 1.226C39.522 1.02067 39.8113 0.918 40.138 0.918C40.2967 0.918 40.4507 0.945999 40.6 1.002C40.7493 1.04867 40.8847 1.12333 41.006 1.226C41.1273 1.32867 41.2207 1.45467 41.286 1.604C41.3607 1.744 41.398 1.912 41.398 2.108V14.064H38.892V8.352H38.15V14.064H35.644V2.108ZM30.842 13.434C30.422 13.434 30.0767 13.3967 29.806 13.322C29.5353 13.2567 29.3253 13.1447 29.176 12.986C29.0267 12.8273 28.924 12.6127 28.868 12.342C28.812 12.0713 28.784 11.7353 28.784 11.334V2.752C28.784 2.276 28.91 1.93067 29.162 1.716C29.4233 1.50133 29.75 1.394 30.142 1.394C30.534 1.394 30.8513 1.50133 31.094 1.716C31.3367 1.93067 31.458 2.276 31.458 2.752V10.732C31.458 10.8907 31.4813 10.9933 31.528 11.04C31.584 11.0773 31.6913 11.096 31.85 11.096H33.936C34.16 11.096 34.3467 11.1287 34.496 11.194C34.6547 11.2593 34.7807 11.348 34.874 11.46C34.9673 11.572 35.0327 11.698 35.07 11.838C35.1073 11.978 35.126 12.1227 35.126 12.272C35.126 12.4213 35.1027 12.566 35.056 12.706C35.0187 12.846 34.9533 12.9673 34.86 13.07C34.776 13.182 34.6547 13.2707 34.496 13.336C34.3467 13.4013 34.16 13.434 33.936 13.434H30.842ZM43.456 4.642C43.736 4.53933 43.9693 4.404 44.156 4.236C44.352 4.05867 44.506 3.858 44.618 3.634C44.73 3.41 44.8093 3.16267 44.856 2.892C44.9027 2.612 44.9307 2.318 44.94 2.01C44.9493 1.58067 45.0893 1.27267 45.36 1.086C45.64 0.899333 45.9573 0.810666 46.312 0.819999C46.6667 0.829333 46.97 0.932 47.222 1.128C47.474 1.324 47.6 1.632 47.6 2.052C47.6 2.18267 47.5953 2.31333 47.586 2.444C47.5767 2.57467 47.5627 2.70067 47.544 2.822C48.0107 2.86867 48.4167 2.99 48.762 3.186C49.1167 3.37267 49.4107 3.648 49.644 4.012C49.9987 3.54533 50.1807 2.878 50.19 2.01C50.1993 1.58067 50.3393 1.27267 50.61 1.086C50.89 0.899333 51.2073 0.810666 51.562 0.819999C51.9167 0.829333 52.22 0.932 52.472 1.128C52.724 1.324 52.85 1.632 52.85 2.052C52.85 2.20133 52.8407 2.35067 52.822 2.5C52.8127 2.64 52.7987 2.77533 52.78 2.906C53.5733 3.06467 54.1987 3.452 54.656 4.068C55.1227 4.67467 55.3373 5.53333 55.3 6.644H52.78C52.8453 6.196 52.8127 5.818 52.682 5.51C52.5607 5.19267 52.3507 4.96867 52.052 4.838C51.6787 5.44467 51.2167 5.92533 50.666 6.28C50.1153 6.62533 49.5553 6.80733 48.986 6.826C48.6313 6.83533 48.342 6.77 48.118 6.63C47.894 6.48067 47.7587 6.28467 47.712 6.042C47.6933 5.958 47.6793 5.87867 47.67 5.804C47.67 5.72 47.6793 5.64067 47.698 5.566C47.6047 5.10867 47.3573 4.824 46.956 4.712C46.6293 5.3 46.214 5.77133 45.71 6.126C45.206 6.47133 44.6553 6.68133 44.058 6.756C43.7033 6.80267 43.4047 6.75133 43.162 6.602C42.9193 6.44333 42.77 6.22867 42.714 5.958C42.6487 5.65 42.6813 5.37933 42.812 5.146C42.952 4.91267 43.1667 4.74467 43.456 4.642ZM45.15 14.064C44.758 14.064 44.4313 14.0267 44.17 13.952C43.9087 13.8867 43.7033 13.7747 43.554 13.616C43.4047 13.4573 43.2973 13.252 43.232 13C43.176 12.7387 43.148 12.4167 43.148 12.034V11.25C43.148 10.774 43.2927 10.438 43.582 10.242C43.8713 10.0367 44.212 9.934 44.604 9.934C44.996 9.934 45.3273 10.0367 45.598 10.242C45.878 10.4473 46.018 10.7833 46.018 11.25V11.642C46.018 11.7633 46.0367 11.8427 46.074 11.88C46.1113 11.908 46.1953 11.922 46.326 11.922H53.942C54.3713 11.922 54.6747 12.0293 54.852 12.244C55.0293 12.4587 55.118 12.706 55.118 12.986C55.118 13.2753 55.0247 13.5273 54.838 13.742C54.6607 13.9567 54.362 14.064 53.942 14.064H45.15ZM54.46 7.302C54.656 7.302 54.824 7.33467 54.964 7.4C55.104 7.46533 55.216 7.554 55.3 7.666C55.3933 7.76867 55.4587 7.88533 55.496 8.016C55.5333 8.14667 55.552 8.27733 55.552 8.408C55.552 8.53867 55.5287 8.674 55.482 8.814C55.4447 8.94467 55.384 9.06133 55.3 9.164C55.216 9.26667 55.104 9.35067 54.964 9.416C54.824 9.48133 54.656 9.514 54.46 9.514H43.54C43.344 9.514 43.176 9.48133 43.036 9.416C42.896 9.35067 42.784 9.26667 42.7 9.164C42.616 9.06133 42.5507 8.94467 42.504 8.814C42.4667 8.674 42.448 8.53867 42.448 8.408C42.448 8.27733 42.4667 8.14667 42.504 8.016C42.5413 7.88533 42.602 7.76867 42.686 7.666C42.7793 7.554 42.896 7.46533 43.036 7.4C43.176 7.33467 43.344 7.302 43.54 7.302H54.46Z" fill="#864AF9"/>
</svg>
